<?xml version="1.0" standalone="no"?>
<!DOCTYPE svg PUBLIC "-//W3C//DTD SVG 20010904//EN"
 "http://www.w3.org/TR/2001/REC-SVG-20010904/DTD/svg10.dtd">
<svg version="1.0" xmlns="http://www.w3.org/2000/svg"
 width="520.000000pt" height="520.000000pt" viewBox="0 0 520.000000 520.000000"
 preserveAspectRatio="xMidYMid meet">
<metadata>
Created by potrace 1.11, written by Peter Selinger 2001-2013
</metadata>
<g transform="translate(0.000000,520.000000) scale(0.100000,-0.100000)"
fill="#000000" stroke="none">
<path d="M1890 2958 c-1 -1323 -1 -1333 -51 -1433 -61 -123 -222 -185 -404
-155 -235 38 -290 153 -321 673 l-6 97 -321 -2 -322 -3 1 -153 c3 -301 55
-539 166 -754 144 -283 398 -410 848 -425 179 -6 334 11 473 51 85 25 96 26
372 26 l285 0 0 740 0 740 645 0 645 0 0 -740 0 -740 345 0 345 0 0 1655 0
1655 -345 0 -345 0 0 -630 0 -630 -645 0 -645 0 0 630 0 630 -360 0 -360 0 0
-1232z"/>
</g>
</svg>
